# Blender 5.0.0 Alpha
# www.blender.org
mtllib SliceParticles.mtl
o SliceParticlesPlane
v -0.009375 0.033617 0.000000
v 0.000000 -0.075000 0.000000
v 0.000000 0.075000 0.000000
v 0.009375 0.033617 0.000000
v 0.000000 0.033617 0.009375
v 0.000000 0.033617 -0.009375
vn 0.6982 0.1582 0.6982
vn -0.7058 -0.0609 0.7058
vn 0.7058 -0.0609 0.7058
vn -0.6982 0.1582 0.6982
vn 0.7058 -0.0609 -0.7058
vn -0.7058 -0.0609 -0.7058
vn 0.6982 0.1582 -0.6982
vn -0.6982 0.1582 -0.6982
vt 1.000000 0.501455
vt 0.500000 1.000000
vt 0.500000 0.501455
vt 0.000000 0.501455
vt 0.500000 0.000000
s 0
usemtl SliceParticleMaterial
f 4/1/1 3/2/1 5/3/1
f 1/4/2 2/5/2 5/3/2
f 2/5/3 4/1/3 5/3/3
f 3/2/4 1/4/4 5/3/4
f 4/4/5 2/5/5 6/3/5
f 2/5/6 1/1/6 6/3/6
f 4/4/7 6/3/7 3/2/7
f 1/1/8 3/2/8 6/3/8
